<svg xmlns="http://www.w3.org/2000/svg" viewBox="0 0 646.8 105.46"><defs><style>.cls-1{fill:#231f20;}.cls-2{fill:#ffde17;}</style></defs><title>Gharsolar website ver</title><g id="Layer_2" data-name="Layer 2"><g id="Layer_1-2" data-name="Layer 1"><path class="cls-1" d="M31.11,48.12H61.32v26q0,13.06-9,20.31A33,33,0,0,1,31,101.7,33.82,33.82,0,0,1,9.2,94.33Q0,87,0,74.15V27.68Q0,14.6,8.82,7.3a31.93,31.93,0,0,1,21-7.3A32.9,32.9,0,0,1,51.23,7.36q9.08,7.36,9.08,20.32v2.54L39.23,34.28v-6.6a7,7,0,0,0-2.79-5.84,10.47,10.47,0,0,0-6.6-2.16,9.55,9.55,0,0,0-6.16,2.09,7.15,7.15,0,0,0-2.6,5.91V74.15a6.84,6.84,0,0,0,3,5.84A11.48,11.48,0,0,0,31,82.15a10.41,10.41,0,0,0,6.54-2.1,7,7,0,0,0,2.73-5.9V67.93H31.11Z"/><path class="cls-1" d="M74.05,1.4H95.13v39h16.63V1.4h21.07v99H111.76V60.18H95.13v40.25H74.05Z"/><path class="cls-1" d="M163.85,1.4h19.8l22.09,99H184.67l-2-10.41H164.86l-2,10.41H141.75ZM173.75,45,168.8,70.21h9.9Z"/><path class="cls-1" d="M215.3,1.4H245a33.75,33.75,0,0,1,21.72,7.3Q275.86,16,275.86,29v7.49q0,16.89-14.6,24.12l15.61,39.87h-22.6L240.94,64h-4.57v36.44H215.3ZM236.37,21V44.44h9.14a10.41,10.41,0,0,0,6.54-2.1,7,7,0,0,0,2.73-5.9V29a6.87,6.87,0,0,0-2.92-5.84A11.22,11.22,0,0,0,245,21Z"/><path class="cls-1" d="M283.85,28.72q0-13.78,8.66-20.74t21.06-7a32.8,32.8,0,0,1,21.31,7.34q9,7.34,9.05,20.24v2.52l-21,4.05V28.6a7,7,0,0,0-2.78-5.82,10.42,10.42,0,0,0-6.58-2.15,9.48,9.48,0,0,0-6.13,2.08,7.13,7.13,0,0,0-2.59,5.89,9.6,9.6,0,0,0,3,6.76,23.67,23.67,0,0,0,7.4,5.12q4.42,2,9.67,5a101.39,101.39,0,0,1,9.68,6.19,25.07,25.07,0,0,1,7.4,9,28.79,28.79,0,0,1,3,13.28,27.32,27.32,0,0,1-4.62,16,26.16,26.16,0,0,1-11.38,9.48,37.92,37.92,0,0,1-14.86,2.85,32.9,32.9,0,0,1-21.25-7.21q-9-7.2-9-20.23V72.61l21-4.55v6.83a7,7,0,0,0,2.71,5.87,10.37,10.37,0,0,0,6.52,2.09A11.47,11.47,0,0,0,321,80.7a6.8,6.8,0,0,0,3-5.81,13.86,13.86,0,0,0-2.21-7.79A17.39,17.39,0,0,0,316,61.67a79.37,79.37,0,0,0-7.78-4q-4.24-1.89-8.54-4.17a44.68,44.68,0,0,1-7.84-5.25,21.59,21.59,0,0,1-5.76-8A28.4,28.4,0,0,1,283.85,28.72Z"/><path class="cls-1" d="M460.63,2.42h21V81.34h27.19v19.73H460.63Z"/><path class="cls-1" d="M535.5,2.42h19.73l22,98.65h-21l-2-10.38H536.51l-2,10.38h-21Zm9.87,43.38L540.43,71h9.87Z"/><path class="cls-1" d="M585.46,2.42h29.59a33.64,33.64,0,0,1,21.63,7.26q9.11,7.29,9.11,20.18v7.46q0,16.83-14.55,24l15.56,39.72H624.29L611,64.77h-4.56v36.3h-21Zm21,19.47v23.4h9.11a10.38,10.38,0,0,0,6.51-2.09,7,7,0,0,0,2.72-5.88V29.86A6.85,6.85,0,0,0,621.88,24a11.19,11.19,0,0,0-6.83-2.15Z"/><path class="cls-2" d="M400.3,3.33a51.07,51.07,0,1,0,51.07,51.06A51.06,51.06,0,0,0,400.3,3.33Zm0,77.69a26.63,26.63,0,1,1,26.63-26.63A26.63,26.63,0,0,1,400.3,81Z"/></g></g></svg>